<mxfile host="Electron" modified="2024-01-26T11:25:06.180Z" agent="Mozilla/5.0 (Windows NT 10.0; Win64; x64) AppleWebKit/537.36 (KHTML, like Gecko) draw.io/22.1.21 Chrome/120.0.6099.109 Electron/28.1.0 Safari/537.36" etag="bOOXNRb9qBcAAG-ahnkc" version="22.1.21" type="device">
  <diagram name="Страница — 1" id="TnF-1KzbtCl-yF0Jqcqg">
    <mxGraphModel dx="989" dy="617" grid="1" gridSize="10" guides="1" tooltips="1" connect="1" arrows="1" fold="1" page="1" pageScale="1" pageWidth="827" pageHeight="1169" math="0" shadow="0">
      <root>
        <mxCell id="0" />
        <mxCell id="1" parent="0" />
        <mxCell id="KJVgfFnyvS2N_DwwKR-h-14" style="edgeStyle=orthogonalEdgeStyle;rounded=0;orthogonalLoop=1;jettySize=auto;html=1;exitX=1;exitY=0.5;exitDx=0;exitDy=0;exitPerimeter=0;entryX=0;entryY=0.5;entryDx=0;entryDy=0;" parent="1" source="KJVgfFnyvS2N_DwwKR-h-2" target="KJVgfFnyvS2N_DwwKR-h-10" edge="1">
          <mxGeometry relative="1" as="geometry" />
        </mxCell>
        <mxCell id="KJVgfFnyvS2N_DwwKR-h-2" value="Postgres&lt;br&gt;DB" style="shape=cylinder3;whiteSpace=wrap;html=1;boundedLbl=1;backgroundOutline=1;size=15;" parent="1" vertex="1">
          <mxGeometry x="93" y="475" width="60" height="80" as="geometry" />
        </mxCell>
        <mxCell id="KJVgfFnyvS2N_DwwKR-h-11" style="edgeStyle=orthogonalEdgeStyle;rounded=0;orthogonalLoop=1;jettySize=auto;html=1;entryX=0.5;entryY=0;entryDx=0;entryDy=0;" parent="1" source="KJVgfFnyvS2N_DwwKR-h-3" target="KJVgfFnyvS2N_DwwKR-h-10" edge="1">
          <mxGeometry relative="1" as="geometry" />
        </mxCell>
        <mxCell id="KJVgfFnyvS2N_DwwKR-h-3" value="Go server" style="rhombus;whiteSpace=wrap;html=1;" parent="1" vertex="1">
          <mxGeometry x="243" y="310" width="130" height="80" as="geometry" />
        </mxCell>
        <mxCell id="KJVgfFnyvS2N_DwwKR-h-7" style="edgeStyle=orthogonalEdgeStyle;rounded=0;orthogonalLoop=1;jettySize=auto;html=1;entryX=0.5;entryY=0;entryDx=0;entryDy=0;" parent="1" source="KJVgfFnyvS2N_DwwKR-h-5" target="KJVgfFnyvS2N_DwwKR-h-3" edge="1">
          <mxGeometry relative="1" as="geometry" />
        </mxCell>
        <mxCell id="KJVgfFnyvS2N_DwwKR-h-5" value="Nats &lt;br&gt;Striming" style="whiteSpace=wrap;html=1;aspect=fixed;" parent="1" vertex="1">
          <mxGeometry x="268" y="120" width="80" height="80" as="geometry" />
        </mxCell>
        <mxCell id="KJVgfFnyvS2N_DwwKR-h-9" value="&lt;font style=&quot;font-size: 8px;&quot;&gt;Server устанавливает соединение с NS&lt;br&gt;и подписывается на канал&lt;br&gt;&lt;/font&gt;" style="text;html=1;align=left;verticalAlign=middle;resizable=0;points=[];autosize=1;strokeColor=none;fillColor=none;" parent="1" vertex="1">
          <mxGeometry x="313" y="230" width="170" height="40" as="geometry" />
        </mxCell>
        <mxCell id="KJVgfFnyvS2N_DwwKR-h-13" style="edgeStyle=orthogonalEdgeStyle;rounded=0;orthogonalLoop=1;jettySize=auto;html=1;exitX=0;exitY=0.5;exitDx=0;exitDy=0;" parent="1" source="KJVgfFnyvS2N_DwwKR-h-10" target="KJVgfFnyvS2N_DwwKR-h-2" edge="1">
          <mxGeometry relative="1" as="geometry" />
        </mxCell>
        <mxCell id="KJVgfFnyvS2N_DwwKR-h-28" style="edgeStyle=orthogonalEdgeStyle;rounded=0;orthogonalLoop=1;jettySize=auto;html=1;" parent="1" source="KJVgfFnyvS2N_DwwKR-h-10" target="KJVgfFnyvS2N_DwwKR-h-21" edge="1">
          <mxGeometry relative="1" as="geometry" />
        </mxCell>
        <mxCell id="KJVgfFnyvS2N_DwwKR-h-29" style="edgeStyle=orthogonalEdgeStyle;rounded=0;orthogonalLoop=1;jettySize=auto;html=1;entryX=0.5;entryY=1;entryDx=0;entryDy=0;" parent="1" source="KJVgfFnyvS2N_DwwKR-h-10" target="KJVgfFnyvS2N_DwwKR-h-3" edge="1">
          <mxGeometry relative="1" as="geometry" />
        </mxCell>
        <mxCell id="KJVgfFnyvS2N_DwwKR-h-10" value="КЭШ" style="rounded=1;whiteSpace=wrap;html=1;" parent="1" vertex="1">
          <mxGeometry x="260.5" y="490" width="95" height="50" as="geometry" />
        </mxCell>
        <mxCell id="KJVgfFnyvS2N_DwwKR-h-25" style="edgeStyle=orthogonalEdgeStyle;rounded=0;orthogonalLoop=1;jettySize=auto;html=1;" parent="1" source="KJVgfFnyvS2N_DwwKR-h-15" target="KJVgfFnyvS2N_DwwKR-h-21" edge="1">
          <mxGeometry relative="1" as="geometry" />
        </mxCell>
        <mxCell id="KJVgfFnyvS2N_DwwKR-h-15" value="" style="shape=actor;whiteSpace=wrap;html=1;" parent="1" vertex="1">
          <mxGeometry x="683" y="485" width="50" height="60" as="geometry" />
        </mxCell>
        <mxCell id="KJVgfFnyvS2N_DwwKR-h-18" value="" style="shape=link;html=1;rounded=0;exitX=0.5;exitY=1;exitDx=0;exitDy=0;" parent="1" source="KJVgfFnyvS2N_DwwKR-h-5" edge="1">
          <mxGeometry width="100" relative="1" as="geometry">
            <mxPoint x="307.83" y="220" as="sourcePoint" />
            <mxPoint x="308" y="300" as="targetPoint" />
          </mxGeometry>
        </mxCell>
        <mxCell id="KJVgfFnyvS2N_DwwKR-h-30" style="edgeStyle=orthogonalEdgeStyle;rounded=0;orthogonalLoop=1;jettySize=auto;html=1;entryX=1;entryY=0.5;entryDx=0;entryDy=0;" parent="1" source="KJVgfFnyvS2N_DwwKR-h-21" target="KJVgfFnyvS2N_DwwKR-h-3" edge="1">
          <mxGeometry relative="1" as="geometry">
            <Array as="points">
              <mxPoint x="513" y="350" />
            </Array>
          </mxGeometry>
        </mxCell>
        <mxCell id="KJVgfFnyvS2N_DwwKR-h-21" value="Web" style="swimlane;fontStyle=0;childLayout=stackLayout;horizontal=1;startSize=30;horizontalStack=0;resizeParent=1;resizeParentMax=0;resizeLast=0;collapsible=1;marginBottom=0;whiteSpace=wrap;html=1;" parent="1" vertex="1">
          <mxGeometry x="453" y="455" width="120" height="120" as="geometry" />
        </mxCell>
        <mxCell id="KJVgfFnyvS2N_DwwKR-h-22" value="Get Order" style="text;strokeColor=none;fillColor=none;align=left;verticalAlign=middle;spacingLeft=4;spacingRight=4;overflow=hidden;points=[[0,0.5],[1,0.5]];portConstraint=eastwest;rotatable=0;whiteSpace=wrap;html=1;" parent="KJVgfFnyvS2N_DwwKR-h-21" vertex="1">
          <mxGeometry y="30" width="120" height="30" as="geometry" />
        </mxCell>
        <mxCell id="KJVgfFnyvS2N_DwwKR-h-23" value="-------------------" style="text;strokeColor=none;fillColor=none;align=left;verticalAlign=middle;spacingLeft=4;spacingRight=4;overflow=hidden;points=[[0,0.5],[1,0.5]];portConstraint=eastwest;rotatable=0;whiteSpace=wrap;html=1;" parent="KJVgfFnyvS2N_DwwKR-h-21" vertex="1">
          <mxGeometry y="60" width="120" height="30" as="geometry" />
        </mxCell>
        <mxCell id="KJVgfFnyvS2N_DwwKR-h-24" value="-------------------" style="text;strokeColor=none;fillColor=none;align=left;verticalAlign=middle;spacingLeft=4;spacingRight=4;overflow=hidden;points=[[0,0.5],[1,0.5]];portConstraint=eastwest;rotatable=0;whiteSpace=wrap;html=1;" parent="KJVgfFnyvS2N_DwwKR-h-21" vertex="1">
          <mxGeometry y="90" width="120" height="30" as="geometry" />
        </mxCell>
        <mxCell id="KJVgfFnyvS2N_DwwKR-h-27" style="edgeStyle=orthogonalEdgeStyle;rounded=0;orthogonalLoop=1;jettySize=auto;html=1;entryX=0.1;entryY=0.5;entryDx=0;entryDy=0;entryPerimeter=0;" parent="1" source="KJVgfFnyvS2N_DwwKR-h-21" target="KJVgfFnyvS2N_DwwKR-h-15" edge="1">
          <mxGeometry relative="1" as="geometry" />
        </mxCell>
        <mxCell id="KJVgfFnyvS2N_DwwKR-h-31" value="data_order&lt;br&gt;type:structure" style="text;html=1;align=center;verticalAlign=middle;resizable=0;points=[];autosize=1;strokeColor=none;fillColor=none;fontSize=10;" parent="1" vertex="1">
          <mxGeometry x="223" y="420" width="80" height="40" as="geometry" />
        </mxCell>
        <mxCell id="KJVgfFnyvS2N_DwwKR-h-33" value="data_order&lt;br&gt;type:JSON" style="text;html=1;align=center;verticalAlign=middle;resizable=0;points=[];autosize=1;strokeColor=none;fillColor=none;fontSize=10;" parent="1" vertex="1">
          <mxGeometry x="228" y="240" width="70" height="40" as="geometry" />
        </mxCell>
        <mxCell id="KJVgfFnyvS2N_DwwKR-h-34" value="data_order&lt;br&gt;type:structure" style="text;html=1;align=center;verticalAlign=middle;resizable=0;points=[];autosize=1;strokeColor=none;fillColor=none;fontSize=10;" parent="1" vertex="1">
          <mxGeometry x="173" y="470" width="80" height="40" as="geometry" />
        </mxCell>
        <mxCell id="KJVgfFnyvS2N_DwwKR-h-35" value="odred_id&lt;br&gt;type:string" style="text;html=1;align=center;verticalAlign=middle;resizable=0;points=[];autosize=1;strokeColor=none;fillColor=none;" parent="1" vertex="1">
          <mxGeometry x="423" y="310" width="80" height="40" as="geometry" />
        </mxCell>
        <mxCell id="KJVgfFnyvS2N_DwwKR-h-36" value="data_html" style="text;html=1;align=center;verticalAlign=middle;resizable=0;points=[];autosize=1;strokeColor=none;fillColor=none;fontSize=11;" parent="1" vertex="1">
          <mxGeometry x="598" y="480" width="70" height="30" as="geometry" />
        </mxCell>
        <mxCell id="KJVgfFnyvS2N_DwwKR-h-40" value="GET: order" style="text;html=1;align=center;verticalAlign=middle;resizable=0;points=[];autosize=1;strokeColor=none;fillColor=none;" parent="1" vertex="1">
          <mxGeometry x="423" y="350" width="80" height="30" as="geometry" />
        </mxCell>
        <mxCell id="jA23IB-23E99tnc45J_s-2" style="edgeStyle=none;curved=1;rounded=0;orthogonalLoop=1;jettySize=auto;html=1;entryX=0.5;entryY=0;entryDx=0;entryDy=0;entryPerimeter=0;fontSize=12;startSize=8;endSize=8;exitX=0;exitY=0.5;exitDx=0;exitDy=0;" edge="1" parent="1" source="KJVgfFnyvS2N_DwwKR-h-3" target="KJVgfFnyvS2N_DwwKR-h-2">
          <mxGeometry relative="1" as="geometry">
            <Array as="points">
              <mxPoint x="100" y="350" />
            </Array>
          </mxGeometry>
        </mxCell>
        <mxCell id="jA23IB-23E99tnc45J_s-4" value="&lt;font color=&quot;#ff3333&quot; style=&quot;font-size: 28px;&quot;&gt;&lt;b&gt;!?&lt;/b&gt;&lt;/font&gt;" style="text;html=1;align=center;verticalAlign=middle;resizable=0;points=[];autosize=1;strokeColor=none;fillColor=none;fontSize=16;" vertex="1" parent="1">
          <mxGeometry x="108" y="350" width="50" height="50" as="geometry" />
        </mxCell>
      </root>
    </mxGraphModel>
  </diagram>
</mxfile>
